<?xml version="1.0" encoding="UTF-8" standalone="no"?>
<svg
   xmlns:dc="http://purl.org/dc/elements/1.1/"
   xmlns:cc="http://creativecommons.org/ns#"
   xmlns:rdf="http://www.w3.org/1999/02/22-rdf-syntax-ns#"
   xmlns:svg="http://www.w3.org/2000/svg"
   xmlns="http://www.w3.org/2000/svg"
   xmlns:xlink="http://www.w3.org/1999/xlink"
   xmlns:sodipodi="http://sodipodi.sourceforge.net/DTD/sodipodi-0.dtd"
   xmlns:inkscape="http://www.inkscape.org/namespaces/inkscape"
   sodipodi:docname="rumble_icon.svg"
   inkscape:version="1.0 (4035a4fb49, 2020-05-01)"
   id="svg8790"
   version="1.1"
   viewBox="0 0 210 297"
   height="297mm"
   width="210mm">
  <defs
     id="defs8784">
    <rect
       id="rect2125"
       height="158.75"
       width="476.25"
       y="7408.3333"
       x="6266.8452" />
    <linearGradient
       id="linearGradient1257"
       inkscape:collect="always">
      <stop
         id="stop1253"
         offset="0"
         style="stop-color:#ffffff;stop-opacity:1;" />
      <stop
         id="stop1255"
         offset="1"
         style="stop-color:#5599ff;stop-opacity:1" />
    </linearGradient>
    <linearGradient
       id="linearGradient1217"
       inkscape:collect="always">
      <stop
         id="stop1213"
         offset="0"
         style="stop-color:#0264ae;stop-opacity:1" />
      <stop
         style="stop-color:#0266b1;stop-opacity:1"
         offset="0.26157796"
         id="stop1219" />
      <stop
         id="stop1215"
         offset="1"
         style="stop-color:#000000;stop-opacity:1" />
    </linearGradient>
    <linearGradient
       id="linearGradient1459"
       inkscape:collect="always">
      <stop
         id="stop1453"
         offset="0"
         style="stop-color:#00ffff;stop-opacity:1" />
      <stop
         style="stop-color:#0386e9;stop-opacity:1"
         offset="0.07574385"
         id="stop1455" />
      <stop
         id="stop1457"
         offset="1"
         style="stop-color:#000000;stop-opacity:1" />
    </linearGradient>
    <linearGradient
       id="linearGradient1101"
       inkscape:collect="always">
      <stop
         id="stop1097"
         offset="0"
         style="stop-color:#00a3ef;stop-opacity:1;" />
      <stop
         id="stop1099"
         offset="1"
         style="stop-color:#000000;stop-opacity:1" />
    </linearGradient>
    <linearGradient
       id="linearGradient1093"
       inkscape:collect="always">
      <stop
         id="stop1089"
         offset="0"
         style="stop-color:#f87b04;stop-opacity:1;" />
      <stop
         id="stop1091"
         offset="1"
         style="stop-color:#1a1a1a;stop-opacity:1" />
    </linearGradient>
    <linearGradient
       id="linearGradient1068"
       inkscape:collect="always">
      <stop
         id="stop1064"
         offset="0"
         style="stop-color:#000000;stop-opacity:1;" />
      <stop
         id="stop1066"
         offset="1"
         style="stop-color:#00a3ef;stop-opacity:1" />
    </linearGradient>
    <linearGradient
       id="linearGradient1060"
       inkscape:collect="always">
      <stop
         id="stop1056"
         offset="0"
         style="stop-color:#000000;stop-opacity:1;" />
      <stop
         id="stop1058"
         offset="1"
         style="stop-color:#f87b04;stop-opacity:1" />
    </linearGradient>
    <rect
       id="rect950"
       height="235.10119"
       width="355.29762"
       y="1364.494"
       x="-129.26786" />
    <rect
       id="rect9487"
       height="332.48329"
       width="466.11806"
       y="-45.970359"
       x="-461.84174" />
    <radialGradient
       gradientUnits="userSpaceOnUse"
       id="a"
       cx="54.469012"
       cy="104.41722"
       r="125.97819"
       fx="54.469012"
       fy="104.41722"
       gradientTransform="matrix(0.22695978,0,0,-0.30844381,1107.6582,3796.0366)">
      <stop
         offset="0%"
         stop-color="#00D0FE"
         id="stop9381" />
      <stop
         offset="69.09%"
         stop-color="#0093E9"
         id="stop9383" />
      <stop
         offset="100%"
         stop-color="#0077B2"
         id="stop9385" />
    </radialGradient>
    <radialGradient
       gradientUnits="userSpaceOnUse"
       id="b"
       cx="107.15436"
       cy="151.14757"
       r="131.72142"
       fx="107.15436"
       fy="151.14757"
       gradientTransform="matrix(0.22697993,0,0,-0.30841643,1107.6582,3819.8094)">
      <stop
         offset="0%"
         stop-color="#F79606"
         id="stop9388" />
      <stop
         offset="100%"
         stop-color="#F96603"
         id="stop9390" />
    </radialGradient>
    <rect
       x="-461.84174"
       y="-45.970359"
       width="466.11806"
       height="332.48329"
       id="rect9495" />
    <rect
       x="-461.84174"
       y="-45.970359"
       width="466.11806"
       height="332.48329"
       id="rect9505" />
    <rect
       id="rect9507"
       height="332.48329"
       width="466.11806"
       y="-45.970359"
       x="-461.84174" />
    <rect
       x="-461.84174"
       y="-45.970359"
       width="466.11806"
       height="332.48329"
       id="rect9519" />
    <rect
       id="rect9533"
       height="332.48329"
       width="466.11806"
       y="-45.970359"
       x="-461.84174" />
    <rect
       x="-461.84174"
       y="-45.970359"
       width="466.11806"
       height="332.48329"
       id="rect9535" />
    <rect
       x="-461.84174"
       y="-45.970359"
       width="466.11806"
       height="332.48329"
       id="rect9567" />
    <rect
       id="rect9569"
       height="332.48329"
       width="466.11806"
       y="-45.970359"
       x="-461.84174" />
    <rect
       id="rect925"
       height="332.48329"
       width="466.11806"
       y="-45.970359"
       x="-461.84174" />
    <rect
       x="-461.84174"
       y="-45.970359"
       width="466.11806"
       height="332.48329"
       id="rect927" />
    <rect
       x="-461.84174"
       y="-45.970359"
       width="466.11806"
       height="332.48329"
       id="rect989" />
    <rect
       id="rect991"
       height="332.48329"
       width="466.11806"
       y="-45.970359"
       x="-461.84174" />
    <rect
       x="-129.26786"
       y="1364.494"
       width="355.29762"
       height="235.10119"
       id="rect960" />
    <rect
       x="-129.26786"
       y="1364.494"
       width="355.29762"
       height="235.10119"
       id="rect1002" />
    <linearGradient
       y2="2447.3958"
       x2="401.7887"
       y1="2448.9077"
       x1="357.1875"
       gradientTransform="matrix(0.97923981,0,0,0.97923981,4028.434,3830.3832)"
       gradientUnits="userSpaceOnUse"
       id="linearGradient1296"
       xlink:href="#linearGradient1093"
       inkscape:collect="always" />
    <linearGradient
       y2="2509.762"
       x2="176.51488"
       y1="2495.0208"
       x1="315.23215"
       gradientTransform="matrix(0.97923981,0,0,0.97923981,4028.434,3830.3831)"
       gradientUnits="userSpaceOnUse"
       id="linearGradient1298"
       xlink:href="#linearGradient1068"
       inkscape:collect="always" />
    <linearGradient
       y2="2520.3452"
       x2="61.988091"
       y1="2518.0774"
       x1="104.32143"
       gradientTransform="matrix(0.97923981,0,0,0.97923981,4028.434,3830.3832)"
       gradientUnits="userSpaceOnUse"
       id="linearGradient1300"
       xlink:href="#linearGradient1101"
       inkscape:collect="always" />
    <linearGradient
       y2="2457.2231"
       x2="285.75"
       y1="2471.9644"
       x1="152.3244"
       gradientTransform="matrix(0.97923981,0,0,0.97923981,4028.434,3830.3831)"
       gradientUnits="userSpaceOnUse"
       id="linearGradient1302"
       xlink:href="#linearGradient1060"
       inkscape:collect="always" />
    <linearGradient
       y2="3611.3459"
       x2="1123.3339"
       y1="3645.022"
       x1="1127.3428"
       gradientTransform="matrix(1.0935719,0,0,1.0935719,3018.4532,2222.7307)"
       gradientUnits="userSpaceOnUse"
       id="linearGradient1304"
       xlink:href="#linearGradient1257"
       inkscape:collect="always" />
    <radialGradient
       r="94.002497"
       fy="5631.8174"
       fx="2054.3489"
       cy="5631.8174"
       cx="2054.3489"
       gradientTransform="matrix(-6.1996969e-6,-1.2481342,0.75931769,0,-30.65266,8742.0327)"
       gradientUnits="userSpaceOnUse"
       id="radialGradient1306"
       xlink:href="#linearGradient1217"
       inkscape:collect="always" />
    <radialGradient
       r="110.50395"
       fy="3859.9114"
       fx="1743.6"
       cy="3859.9114"
       cx="1743.6"
       gradientTransform="matrix(0.88712349,0,0,1.1001017,2703.1247,2028.6428)"
       gradientUnits="userSpaceOnUse"
       id="radialGradient1308"
       xlink:href="#linearGradient1459"
       inkscape:collect="always" />
  </defs>
  <sodipodi:namedview
     inkscape:snap-global="false"
     inkscape:window-maximized="0"
     inkscape:window-y="10"
     inkscape:window-x="960"
     inkscape:window-height="2101"
     inkscape:window-width="1900"
     showgrid="false"
     inkscape:document-rotation="0"
     inkscape:current-layer="layer1"
     inkscape:document-units="mm"
     inkscape:cy="1531.8447"
     inkscape:cx="-64.124331"
     inkscape:zoom="0.49497475"
     inkscape:pageshadow="2"
     inkscape:pageopacity="0.0"
     borderopacity="1.0"
     bordercolor="#666666"
     pagecolor="#ffffff"
     id="base" />
  <metadata
     id="metadata8787">
    <rdf:RDF>
      <cc:Work
         rdf:about="">
        <dc:format>image/svg+xml</dc:format>
        <dc:type
           rdf:resource="http://purl.org/dc/dcmitype/StillImage" />
        <dc:title></dc:title>
      </cc:Work>
    </rdf:RDF>
  </metadata>
  <g
     id="layer1"
     inkscape:groupmode="layer"
     inkscape:label="Layer 1">
    <g
       transform="matrix(0.49113377,0,0,0.49113377,-1982.2761,-2913.5625)"
       id="g2211">
      <path
         id="path1323"
         style="fill:#ffffff;fill-opacity:1;fill-rule:evenodd;stroke:none;stroke-width:5.15199;stroke-linecap:round;stroke-linejoin:miter;stroke-miterlimit:4;stroke-dasharray:none;stroke-opacity:1;paint-order:markers fill stroke"
         inkscape:transform-center-x="1.174673e-05"
         inkscape:transform-center-y="31.601901"
         d="m 4263.8068,6058.0786 c -5.5427,1.8108 -11.0921,3.73 -16.2498,6.4795 -8.6246,4.9094 -16.8626,10.8038 -23.2289,18.4953 -9.6638,11.2239 -16.0514,25.3744 -17.4371,40.1645 -0.428,3.3363 -0.7638,6.6559 -1.4435,9.9545 -0.2739,0.9225 -0.3992,2.2187 -1.2871,2.8496 -1.0449,0.151 -1.9029,-0.7177 -2.7318,-1.2338 -6.2786,-4.803 -13.2308,-8.6257 -20.2055,-12.2996 -1.9877,-1.0395 -3.9913,-2.0453 -6.0041,-3.035 2.2941,5.6775 5.1048,11.131 7.3278,16.8379 2.1764,5.5532 3.2845,11.5702 2.7738,17.5356 -0.7292,8.2601 -2.8959,16.5917 -7.5489,23.5484 -1.7259,2.529 -3.665,4.8415 -6.0648,6.8205 -2.6805,2.268 -5.8899,3.7546 -8.8555,5.5963 -9.9588,5.8441 -19.9134,11.6954 -29.8649,17.552 7.9102,45.1454 15.8216,90.2906 23.7344,135.4355 31.0632,22.9692 62.1291,45.9347 93.1934,68.9024 31.0636,-22.9677 62.1288,-45.9332 93.1914,-68.9024 7.9134,-45.1456 15.8255,-90.2914 23.7363,-135.4375 -13.0367,-7.7165 -26.1828,-15.2541 -39.1107,-23.1491 -3.7451,-3.0244 -7.577,-6.357 -9.4439,-10.9159 -1.2071,-3.6544 -2.0632,-7.453 -3.81,-10.9139 -3.914,-9.056 -9.9911,-16.9608 -14.1277,-25.9022 -2.2414,-5.0816 -3.0468,-10.7426 -2.3613,-16.2613 1.0192,-8.5206 5.044,-16.3731 9.9885,-23.2695 0.4104,-0.5674 0.8213,-1.1344 1.2323,-1.7014 -6.3907,0.2102 -11.9356,1.153 -17.9244,3.2948 -4.6091,1.5907 -9.2155,5.4523 -12.3545,9.1311 -2.1799,2.4001 -3.8332,5.2855 -6.3459,7.3726 -1.8145,1.3862 -4.1852,1.797 -6.4154,1.8812 -4.1507,0.105 -8.0605,-2.2451 -10.418,-5.5772 -2.9029,-3.9305 -3.9109,-8.8932 -4.0852,-13.6893 -0.3292,-6.9443 1.2834,-13.8516 3.7985,-20.2535 2.6613,-6.8141 6.2062,-13.2293 9.575,-19.7085 -0.4108,0.1328 -0.8216,0.2656 -1.2325,0.3984 z"
         sodipodi:nodetypes="ccccccccccccccccccccccccccccccccccc" />
      <path
         sodipodi:nodetypes="ccccccc"
         d="m 4357.5713,6211.626 -22.1536,126.408 -85.5044,63.2038 -85.5044,-63.2038 -22.1536,-126.408 107.658,-63.204 z"
         inkscape:transform-center-y="31.601901"
         inkscape:transform-center-x="1.174673e-05"
         style="fill:url(#radialGradient1308);fill-opacity:1;fill-rule:evenodd;stroke:#000000;stroke-width:5.152;stroke-linecap:round;stroke-linejoin:miter;stroke-miterlimit:4;stroke-dasharray:none;stroke-opacity:1;paint-order:markers fill stroke"
         id="path1261" />
      <path
         sodipodi:nodetypes="ccsssscsscssccsscsscscc"
         style="fill:url(#radialGradient1306);fill-opacity:1;stroke-width:1.38771"
         d="m 4221.9219,6264.3919 c -3.2991,0 -18.8259,-6.3022 -25.4562,-10.332 -20.7698,-12.6249 -32.2343,-33.9029 -26.8079,-55.2612 0.5405,-2.1275 0.7878,-6.2285 4.0657,-8.6481 4.5188,-3.3356 10.0777,-9.7629 13.1711,-17.4835 5.4207,-13.5293 5.8015,-29.5729 1.2379,-37.7234 l -2.5082,-4.4799 3.4442,2.0863 c 7.1815,4.3498 11.4232,9.0993 11.1542,19.685 -0.2529,9.9519 7.1046,17.7671 14.4145,13.1497 5.6851,-3.6775 0.02,-14.11 -1.1458,-20.976 -4.3634,-25.7037 3.7212,-46.2546 19.428,-62.1276 6.1927,-6.2577 21.8524,-15.372 21.8524,-15.372 -6.429,9.4595 -10.9029,24.7735 -9.9506,35.456 1.6559,16.4572 8.3911,27.6025 19.9207,27.6025 7.4791,0 13.9465,-2.1458 17.3975,-12.9802 3.9551,-12.4167 15.7846,-14.1434 15.7846,-14.1434 -7.4559,10.0572 -7.9046,22.0008 -4.3554,34.9908 1.7844,6.5307 14.8849,19.4597 18.7732,36.1534 1.8209,7.8181 13.1547,15.8536 13.1547,15.8536 0,0 32.8282,24.4354 30.729,29.1356 -8.3862,18.7768 -64.4238,44.4462 -74.5783,47.344 -26.888,-3.4415 -35.9131,-8.3638 -59.7253,-1.9296 z"
         id="path1263" />
      <path
         id="path1265"
         style="fill:url(#linearGradient1304);fill-opacity:1;fill-rule:evenodd;stroke:none;stroke-width:5.46785;stroke-linecap:round;stroke-linejoin:round;stroke-miterlimit:4;stroke-dasharray:none;stroke-opacity:1;paint-order:markers fill stroke"
         d="m 4241.8578,6132.8956 c 0,0 4.4764,7.083 4.4348,14.4971 -0.054,9.689 -5.0171,15.4152 -18.0642,30.5359 -13.0173,15.0856 -16.4064,22.9557 -16.2277,36.8976 0.1336,10.4241 -4.6042,11.2859 -8.7986,12.3705 17.7083,14.1659 20.4834,20.5428 -0.5178,11.2413 v 41.2652 h 97.9628 v -40.3498 c -5.1177,3.4689 -10.2695,6.1176 -14.8576,7.4268 -3.4736,0.991 -3.4219,0.7269 1.5789,-8.1991 5.7513,-6.1633 17.6124,-21.9283 12.5834,-21.8488 -3.2402,0.051 -7.1777,-1.1037 -7.4154,-4.6057 -0.9139,-13.4647 -0.5875,-21.7196 -11.853,-31.5883 l -4.1896,-2.9967 c 2.6767,6.1959 5.2488,11.8011 0.5126,18.1086 -4.6406,6.1802 -9.7867,6.3057 -13.4215,3.2155 -7.9553,-6.7634 0.9178,-16.2807 1.5793,-24.8472 0.9586,-12.4147 -2.1151,-17.8549 -5.723,-23.9943 -4.651,-7.9143 -17.5834,-17.1286 -17.5834,-17.1286 z"
         sodipodi:nodetypes="cssscccccscssccssssc" />
      <path
         id="path1267"
         style="fill:#000000;fill-opacity:1;fill-rule:evenodd;stroke-width:1.5;stroke-linecap:round;stroke-linejoin:round;paint-order:markers fill stroke"
         d="m 4237.6655,6276.5977 104.0004,9.1642 -5.7675,33.1058 -94.1347,-9.9291 z"
         sodipodi:nodetypes="ccccc" />
      <path
         sodipodi:nodetypes="scccccccccccccccccccccccccccccccccccccssscs"
         id="path1269"
         style="font-style:normal;font-variant:normal;font-weight:normal;font-stretch:normal;font-size:10.5833px;line-height:1.25;font-family:'Nau Sea';-inkscape-font-specification:'Nau Sea';white-space:pre;fill:#ffffff;fill-opacity:1;stroke:none;stroke-width:4.98266"
         d="m 4402.2205,6247.8128 c -0.063,0 -0.127,0.01 -0.1912,0.011 -1.533,0.021 -3.0655,0.039 -4.5985,0.059 -4.9811,0.059 -9.9743,0.2667 -14.8963,1.0748 -14.9048,1.783 -29.8405,3.2885 -44.7672,4.8696 -0.013,0.7287 -0.027,1.4574 -0.038,2.1858 h -12.6386 c 0.01,-0.2937 0.011,-0.5877 0.016,-0.8816 -63.4044,6.6963 -126.8076,13.3442 -190.2168,19.9884 -5.9542,-5.33 -10.3609,-12.188 -16.6109,-17.2055 -2.2669,-1.6661 -5.281,-2.4586 -8.02,-1.5989 -2.98,0.7588 -5.7042,2.1794 -8.5852,3.1924 -4.7358,1.9106 -9.5591,3.6735 -14.0544,6.1124 -1.0999,0.7652 -2.001,1.8315 -2.5294,3.066 -4.0516,1.3248 -8.2693,2.3413 -11.9999,4.4638 -1.8767,1.2642 -2.8237,3.655 -2.4278,5.8703 0.3132,3.5283 1.0588,7.0644 2.541,10.2958 0.2461,0.6918 0.8943,1.2742 0.6908,2.0457 -0.136,2.9546 0.9621,5.7767 1.895,8.5262 1.1316,2.8057 2.8149,5.4322 5.1125,7.4242 1.0954,3.3698 3.1843,6.3117 5.3639,9.0631 1.1854,1.4377 2.6858,2.632 4.4035,3.3517 1.6825,2.8461 4.0246,5.321 6.7474,7.2001 2.5926,1.5137 6.168,1.3441 8.4444,-0.6842 1.0446,0.3426 2.1731,0.422 3.2602,0.6138 2.6109,0.4075 5.2922,0.2995 7.8481,-0.3849 3.3036,-0.8089 6.5632,-1.7881 9.8682,-2.5932 4.7416,-1.2679 9.5519,-2.4535 14.4301,-2.8075 13.2043,-1.4076 24.4684,-2.5929 37.6761,-3.9764 0.024,-1.3798 -0.067,-9.2152 -0.047,-10.5947 0.7644,1.3006 4.8265,8.6624 5.5917,9.9626 64.938,-6.8297 128.6417,-13.3916 193.58,-20.2184 0.03,-1.8169 0.088,-5.4507 0.088,-5.4507 l 24.0181,-16.523 -23.6265,2.0754 0.011,-7.6994 c 0,0 15.5374,-8.9254 21.6511,-13.486 1.3994,-1.0446 2.9033,-1.9915 4.163,-3.1962 1.216,-1.5981 -0.1926,-4.1807 -2.1514,-4.1513 z m -206.3615,52.4443 c 0.016,0 0.026,0.035 0,0.1297 -0.074,-0.045 -0.03,-0.132 0,-0.1297 z" />
      <path
         sodipodi:nodetypes="scccccccccccccccccccccccccccccccccccccss"
         d="m 4385.2396,6186.2364 c -3.8084,0.057 -7.2302,2.5384 -9.1119,5.7488 -3.9096,5.7719 -6.6804,12.2511 -10.7877,17.8922 -1.7285,0.2872 -3.5489,0.3805 -5.3125,0.5936 -29.7303,3.1039 -59.4645,6.2379 -89.1964,9.3522 -0.1504,8.6462 -0.3023,17.2923 -0.4533,25.9384 -4.2224,0.4443 -8.4447,0.8887 -12.6671,1.333 0.1534,-8.6543 0.3091,-17.3088 0.461,-25.9632 -6.8761,0.7322 -13.7527,1.4606 -20.6291,2.1899 -0.1509,8.6455 -0.3036,17.291 -0.4552,25.9364 -4.2216,0.4444 -8.4433,0.8888 -12.665,1.3332 0.1527,-8.6564 0.3076,-17.3127 0.459,-25.9691 -24.2588,2.5577 -48.526,5.1442 -72.784,7.6335 -12.6423,1.2856 -37.9364,3.7658 -37.9364,3.7658 l -25.3213,2.6756 c 0,0 32.0766,11.49 48.4666,15.6275 -0.031,1.7353 -0.063,3.4706 -0.094,5.2061 -4.8893,0.2895 -17.9694,0.5464 -22.688,1.939 -4.077,0.9583 -0.01,2.0383 -4.0842,2.9877 5.0477,1.8716 9.8723,4.2694 14.7722,6.4809 3.722,1.8018 5.7274,3.0511 9.677,4.1814 -0.05,1.9607 2.0084,3.4673 1.9731,5.4283 74.9894,-7.8764 149.9894,-15.7737 224.9701,-23.6559 4.6607,-0.4223 9.313,-1.095 13.9699,-1.2115 6.8847,0.08 13.7566,0.7597 20.6428,0.6474 2.7609,-0.2297 5.3521,-1.3122 7.8606,-2.4185 2.6897,1.2767 6.2531,1.0734 8.3991,-1.1459 2.379,-2.1663 3.8475,-5.1284 5.0304,-8.0672 0.09,-0.6904 0.9099,-0.7962 1.2964,-1.2915 2.2822,-2.0801 3.3205,-5.0914 4.4859,-7.8638 0.6395,-1.7731 1.1232,-3.6124 1.3005,-5.4929 2.2494,-2.4097 2.8926,-5.7752 3.5677,-8.8859 0.5037,-2.8853 0.4958,-5.873 -0.1404,-8.7365 1.1643,-4.1687 1.2793,-8.6102 0.5567,-12.866 -0.2849,-1.9408 -1.5619,-3.7124 -3.4121,-4.4314 -2.3894,-0.9004 -4.9802,-1.0123 -7.4887,-1.3528 -1.7253,-0.2014 -3.4554,-0.366 -5.1859,-0.5234 -1.6729,-2.3395 -4.6234,-3.2085 -7.3453,-3.5566 -6.6806,-1.3138 -13.4007,-2.4331 -20.1308,-3.4588 z"
         style="fill:#ffffff;fill-opacity:1;stroke:none;stroke-width:4.8962;stroke-miterlimit:4;stroke-dasharray:none;stroke-opacity:1"
         id="path1271" />
      <path
         style="fill:url(#linearGradient1296);fill-opacity:1;stroke-width:0.230836"
         d="m 4343.4681,6218.4455 25.2319,-2.6505 c 0,0 4.3479,-5.3784 8.6906,-13.8899 2.2207,-4.3526 4.9287,-7.8266 5.2182,-8.1778 0.6046,-0.7345 1.4925,-1.1671 2.4697,-1.2039 1.0331,-0.039 20.4358,3.3584 21.6179,3.7853 0.8993,0.3248 1.0547,0.471 1.1883,1.119 0.1818,0.8823 -0.6699,20.7417 -0.9244,21.552 -0.3338,1.0629 -2.713,1.1832 -4.9643,0.2507 -3.3276,-1.378 -5.156,-4.5279 -5.167,-8.9022 0,-0.8604 -0.065,-1.749 -0.1393,-1.9744 -0.102,-0.3091 -0.8499,-0.4733 -3.0441,-0.6679 l -2.909,-0.258 -0.1189,1.859 c -0.2163,3.3698 -0.921,6.4789 -2.1763,9.6012 -2.0173,5.0178 -5.0537,9.1197 -9.9444,13.4343 -1.5036,1.3264 -2.8782,2.4733 -3.0546,2.5484 -0.7477,0.3191 -0.073,0.4918 0.9067,0.2325 1.3761,-0.3643 11.7248,-2.6234 12.1287,-2.6479 0.2083,-0.012 0.2089,1.6067 0,5.034 l -0.3055,5.0524 3.2921,1.2868 c 8.9321,3.4909 10.6322,4.1707 10.6732,4.2679 0.024,0.057 -1.1471,0.5455 -2.6034,1.084 -1.7965,0.6642 -3.0789,1.0046 -3.9885,1.0586 -0.7375,0.044 -5.9543,-0.2379 -11.5978,-0.5394 l -10.0677,-0.3288 -30.9096,3.2469 z m 15.0632,23.1218 c 2.9931,-0.7149 5.8159,-1.3498 6.273,-1.4109 0.6787,-0.091 1.2529,0.1482 3.1336,1.3049 1.2664,0.779 2.3722,1.3865 2.4573,1.3502 0.085,-0.036 -0.2896,-0.754 -0.8326,-1.5951 -0.5881,-0.9112 -1.1718,-2.1113 -1.4442,-2.9698 -0.5414,-1.7062 -1.0581,-4.8429 -0.9767,-5.9297 0.031,-0.424 0.01,-0.7921 -0.057,-0.8179 -0.063,-0.025 -0.6523,1.1863 -1.3094,2.6932 l -1.1947,2.7399 -1.5422,0.8059 c -0.8483,0.443 -3.1868,1.5713 -5.1969,2.5073 -3.5251,1.6411 -5.106,2.4778 -4.8663,2.5754 0.063,0.025 2.5631,-0.5383 5.5561,-1.2534 z m 33.0267,-1.7508 c 0.3424,-1.8279 1.9615,-5.1077 2.6711,-5.4104 0.4109,-0.1752 0.1887,-0.2466 10.3623,3.3283 4.1438,1.4561 7.5783,2.7521 7.6322,2.8799 0.5841,1.3833 -3.0715,8.0152 -4.3861,7.9573 -0.6903,-0.03 -16.1054,-7.3784 -16.2665,-7.7539 -0.076,-0.1787 -0.082,-0.6293 -0.013,-1.0012 z m 3.5658,-8.1927 c 0.1879,-2.4474 2.4282,-8.1659 3.2097,-8.193 0.2216,-0.01 13.3225,3.046 19.2077,4.477 0.4977,0.121 0.9777,0.3921 1.0666,0.6026 0.6828,1.617 -2.5144,9.9063 -4.0782,10.5731 -0.1612,0.069 -2.7923,-0.7434 -5.8471,-1.8047 -3.0548,-1.0615 -7.2818,-2.5137 -9.3936,-3.2277 -2.1117,-0.7138 -3.926,-1.3788 -4.0319,-1.4775 -0.1058,-0.099 -0.1658,-0.5262 -0.1333,-0.9497 z m 7.6644,-9.3109 c 2.0932,-0.3759 2.748,-0.5424 3.6893,-0.9386 1.8753,-0.7891 2.1645,-1.4085 2.4991,-5.3507 0.1623,-1.9128 0.3831,-3.5559 0.4905,-3.6514 0.1075,-0.096 2.4535,0.1532 5.2139,0.5458 2.7602,0.3958 5.5229,0.7739 6.1395,0.8403 0.6258,0.068 1.2598,0.3057 1.4355,0.5394 0.4092,0.5448 0.3687,4.0865 -0.073,6.4221 -0.3455,1.8243 -1.1103,4.039 -1.7034,4.9327 -0.4348,0.6552 -0.1296,0.6928 -8.5199,-1.0483 -3.8422,-0.7975 -7.5126,-1.5551 -8.1564,-1.6842 -1.4164,-0.284 -1.739,-0.4769 -1.0145,-0.6071 z m 6.6675,-14.785 c 0.076,-1.3471 0.1836,-3.7427 0.2396,-5.3236 0.056,-1.581 0.1724,-2.9011 0.2581,-2.9335 0.086,-0.032 1.1649,0.045 2.3977,0.1724 1.2328,0.127 3.7287,0.3841 5.5464,0.5702 1.8178,0.1863 3.652,0.4362 4.0761,0.5554 l 0.771,0.2167 0.1994,1.5213 c 0.4034,3.0768 -0.2437,8.5125 -1.1139,9.3579 -0.1672,0.1625 -0.9074,0.2098 -1.7625,0.1132 -3.2658,-0.3709 -10.662,-1.5119 -10.7044,-1.6513 -0.025,-0.081 0.017,-1.2509 0.092,-2.5981 z"
         id="path1273"
         sodipodi:nodetypes="ccsssssssssscssssssscssssscccssssssssscssssssssscsssssssssssssssssssssssscssscssssssssss" />
      <path
         d="m 4390.873,6254.2127 -18.3266,2.2097 c 1e-4,0 0,0 0,0 -9.5505,1.0033 -19.1013,2.0067 -28.6518,3.0098 -0.2016,11.4086 -0.4031,22.8169 -0.6047,34.2254 9.5511,-1.0032 19.1022,-2.0066 28.6534,-3.0099 0.021,-1.1702 0.04,-2.3405 0.061,-3.5109 l 10.8666,-6.171 -16.8945,2.0377 c -4.7906,0.5032 -9.581,1.0064 -14.3715,1.5095 0.022,-1.5599 0.044,-3.1202 0.068,-4.6802 6.8305,-0.7177 13.6609,-1.4351 20.4914,-2.1527 0.054,-2.7635 0.108,-5.5268 0.162,-8.29 -6.8261,0.7169 -13.6523,1.4336 -20.4783,2.1508 0.021,-1.5603 0.044,-3.12 0.069,-4.68 l 20.4873,-2.1519 c 0,0 0,0 0,0 z m -72.101,7.8546 c -2.7226,0.286 -5.4453,0.5717 -8.1679,0.8576 -0.2011,11.4085 -0.4018,22.8168 -0.6027,34.2253 9.5505,-1.0032 19.1007,-2.0062 28.6512,-3.0093 0.048,-2.7622 0.097,-5.5249 0.1453,-8.287 -6.8293,0.7174 -13.6588,1.4348 -20.488,2.1523 0.1524,-8.6464 0.3084,-17.2925 0.4621,-25.9389 z m -12.8053,1.3449 c -9.5505,1.0032 -19.1008,2.0061 -28.6512,3.0095 -0.201,11.4084 -0.4023,22.8169 -0.6032,34.2252 l 28.6518,-3.0093 c 0.2009,-11.4086 0.4016,-22.8169 0.6026,-34.2254 z m -33.2886,3.4967 c -12.9654,1.362 -25.931,2.7238 -38.8965,4.0858 -0.2009,11.4085 -0.4021,22.8169 -0.6031,34.2254 2.7219,-0.286 5.444,-0.5719 8.1659,-0.8579 0.1532,-8.6463 0.3078,-17.2925 0.4599,-25.9388 2.3999,-0.2521 4.7996,-0.5045 7.1994,-0.7566 -0.1518,8.6464 -0.3069,17.293 -0.4599,25.9394 2.7219,-0.286 5.444,-0.5723 8.1659,-0.8581 0.1531,-8.6464 0.3077,-17.2928 0.4599,-25.9391 2.3992,-0.2518 4.7982,-0.504 7.1974,-0.756 -0.1518,8.6464 -0.3064,17.2928 -0.4594,25.939 2.7218,-0.286 5.4434,-0.5717 8.1653,-0.8578 0.2017,-11.4085 0.4036,-22.8167 0.6052,-34.2253 z m -43.5338,4.5732 c -2.7225,0.286 -5.4453,0.5716 -8.1679,0.8576 -0.1525,8.6464 -0.3063,17.2927 -0.458,25.9391 -4.1066,0.4311 -8.2133,0.8623 -12.3199,1.2938 0.1518,-8.6463 0.3069,-17.2927 0.46,-25.939 -2.7219,0.286 -5.444,0.5718 -8.1659,0.8579 -0.201,11.4085 -0.4017,22.8167 -0.6027,34.2253 9.5505,-1.0033 19.1007,-2.0062 28.6512,-3.0096 0.2011,-11.4083 0.4023,-22.8168 0.6032,-34.2251 z m 68.5097,1.0742 c -0.022,1.5602 -0.044,3.1204 -0.068,4.6805 -4.106,0.4313 -8.212,0.8625 -12.3179,1.2938 0.021,-1.5602 0.044,-3.1202 0.068,-4.6804 0.1521,-0.016 0.3042,-0.032 0.4564,-0.047 3.9539,-0.4153 7.9076,-0.8312 11.8614,-1.2465 z m -101.8008,2.4224 c -9.5505,1.0033 -19.1007,2.0067 -28.6513,3.0099 -0.2009,11.4086 -0.4021,22.8168 -0.6031,34.2253 2.7219,-0.286 5.444,-0.5717 8.1659,-0.8578 0.073,-4.3223 0.1444,-8.6445 0.2166,-12.9672 1.4823,-0.1557 2.9652,-0.3112 4.4475,-0.4669 2.3848,4.0644 4.7707,8.1279 7.1559,12.1923 3.1886,-0.335 6.377,-0.6695 9.5656,-1.0045 -2.386,-4.0641 -4.7716,-8.1287 -7.1579,-12.1928 2.1589,-0.2269 4.3178,-0.4534 6.4768,-0.6801 0.1281,-7.0861 0.2559,-14.1723 0.384,-21.2582 z m -8.3122,9.1447 c -0.021,1.5602 -0.044,3.1202 -0.068,4.6801 -4.106,0.4315 -8.2119,0.8629 -12.3179,1.294 0.022,-1.5603 0.046,-3.1199 0.07,-4.6803 0.1522,-0.016 0.3043,-0.032 0.4565,-0.048 3.9532,-0.415 7.9068,-0.8304 11.86,-1.2457 z m 109.8702,1.4053 c -0.022,1.56 -0.044,3.1202 -0.069,4.6802 -4.106,0.4314 -8.2119,0.8625 -12.3179,1.2939 0.021,-1.56 0.044,-3.1202 0.067,-4.6803 0.1522,-0.016 0.3044,-0.032 0.4565,-0.048 3.9538,-0.4153 7.9081,-0.8304 11.862,-1.2457 z"
         style="font-style:normal;font-variant:normal;font-weight:normal;font-stretch:normal;font-size:10.5833px;line-height:1.25;font-family:'Nau Sea';-inkscape-font-specification:'Nau Sea';white-space:pre;fill:url(#linearGradient1298);fill-opacity:1;stroke:none;stroke-width:4.98265"
         id="path1275" />
      <path
         sodipodi:nodetypes="ccsssssssssscssssssscssssscccssssssssscssssssssscsssssssssssssssssssssssscssscssssssssss"
         id="path1277"
         d="m 4162.1659,6278.4961 -29.3547,3.0835 c 0,0 -5.3706,-4.3575 -11.3871,-11.7807 -3.0767,-3.7963 -6.4474,-6.6317 -6.8035,-6.9151 -0.7441,-0.5928 -1.7025,-0.8314 -2.666,-0.6644 -1.0188,0.176 -19.2919,7.5316 -20.3595,8.1947 -0.8122,0.5046 -0.9338,0.68 -0.9298,1.3416 0.01,0.9009 4.9653,20.1498 5.3826,20.8895 0.5474,0.9702 2.8996,0.5935 4.908,-0.7863 2.9687,-2.0394 4.1026,-5.5005 3.2045,-9.7816 -0.1767,-0.8422 -0.3,-1.7243 -0.2742,-1.9603 0.036,-0.3235 0.733,-0.6395 2.839,-1.2859 l 2.7918,-0.8568 0.5027,1.7937 c 0.9117,3.2513 2.2471,6.1461 4.1238,8.9394 3.016,4.4891 6.8384,7.8705 12.5189,11.0746 1.7465,0.9851 3.3293,1.8213 3.5175,1.8581 0.7976,0.1568 0.1741,0.4657 -0.8385,0.4158 -1.4219,-0.07 -12.014,-0.1298 -12.4142,-0.069 -0.2063,0.031 0.1295,1.6149 1.0446,4.9244 l 1.3487,4.8786 -2.9529,1.9428 c -8.0117,5.2707 -9.5334,6.289 -9.5534,6.3925 -0.012,0.061 1.2355,0.2953 2.7719,0.5194 1.8953,0.2765 3.2204,0.3428 4.1214,0.2067 0.7305,-0.1101 5.7748,-1.47 11.2325,-2.9376 l 9.7797,-2.4136 26.7868,-2.8138 z m -14.0526,26.1802 c -3.0763,-0.077 -5.9694,-0.1118 -6.4292,-0.076 -0.6828,0.052 -1.1947,0.4055 -2.7939,1.9277 -1.077,1.0251 -2.0324,1.8491 -2.1231,1.8313 -0.091,-0.018 0.1265,-0.7977 0.4828,-1.7333 0.386,-1.0135 0.7076,-2.3088 0.7957,-3.2051 0.175,-1.7814 0.028,-4.9569 -0.2769,-6.0033 -0.119,-0.4081 -0.1709,-0.7735 -0.1141,-0.8118 0.057,-0.037 0.8845,1.0248 1.8403,2.3624 l 1.738,2.4318 1.6761,0.4678 c 0.9217,0.257 3.4437,0.8748 5.6043,1.3727 3.7893,0.8728 5.5095,1.3627 5.2954,1.508 -0.056,0.037 -2.619,0.01 -5.6954,-0.072 z m -32.6695,5.1504 c -0.7147,-1.717 -2.9801,-4.5887 -3.7371,-4.7373 -0.4382,-0.086 -0.2357,-0.202 -9.4444,5.4089 -3.7508,2.2853 -6.841,4.2668 -6.8673,4.4029 -0.2839,1.4746 4.67,7.202 5.944,6.8722 0.6688,-0.1735 14.2205,-10.564 14.3002,-10.9649 0.038,-0.1906 -0.05,-0.6326 -0.1954,-0.9818 z m -5.1904,-7.273 c -0.6924,-2.3549 -4.0721,-7.4831 -4.842,-7.3472 -0.2184,0.038 -12.3988,5.7478 -17.8582,8.3705 -0.4617,0.2218 -0.8749,0.5868 -0.9181,0.8111 -0.3318,1.7236 4.518,9.1676 6.1862,9.495 0.1718,0.033 2.5769,-1.3075 5.3445,-2.9804 2.7675,-1.6731 6.6006,-3.9721 8.5178,-5.1092 1.9173,-1.1371 3.5539,-2.1645 3.6369,-2.2829 0.083,-0.1187 0.053,-0.5493 -0.067,-0.9569 z m -9.4319,-7.515 c -2.1255,0.067 -2.8007,0.04 -3.8037,-0.1515 -1.9983,-0.3822 -2.41,-0.928 -3.5565,-4.7147 -0.5562,-1.8373 -1.1136,-3.3986 -1.2386,-3.4697 -0.125,-0.072 -2.3681,0.6596 -4.9866,1.6173 -2.6177,0.9607 -5.2415,1.9047 -5.8308,2.0977 -0.5981,0.1961 -1.1689,0.5608 -1.2921,0.826 -0.2871,0.618 0.4885,4.0738 1.4066,6.2666 0.717,1.7127 1.9253,3.7201 2.6912,4.471 0.5614,0.5506 0.2707,0.6508 8.1161,-2.7959 3.5926,-1.5784 7.0254,-3.0822 7.6283,-3.3422 1.3265,-0.5721 1.602,-0.8278 0.8662,-0.8046 z m -9.5942,-13.0768 c -0.3542,-1.302 -0.9573,-3.6229 -1.3406,-5.1577 -0.3833,-1.5348 -0.7713,-2.802 -0.8621,-2.8159 -0.091,-0.014 -1.13,0.2865 -2.3095,0.6671 -1.1794,0.3803 -3.5674,1.1504 -5.3068,1.7102 -1.7393,0.56 -3.4816,1.1855 -3.8717,1.3902 l -0.7092,0.3722 0.1211,1.5296 c 0.2448,3.0934 2.0073,8.2761 3.0341,8.9221 0.1974,0.1243 0.9313,0.017 1.7476,-0.2554 3.1174,-1.0415 10.1151,-3.6945 10.1275,-3.8397 0.01,-0.084 -0.2761,-1.22 -0.6303,-2.5221 z"
         style="fill:url(#linearGradient1300);fill-opacity:1;stroke-width:0.230836" />
      <path
         d="m 4338.9016,6218.918 -28.6518,3.0099 c -0.201,11.4086 -0.4017,22.8168 -0.6026,34.2253 l 28.6511,-3.0097 c 0.2011,-11.4086 0.4023,-22.8169 0.6033,-34.2255 z m -33.2891,3.4967 c -9.5511,1.0032 -19.1021,2.0067 -28.6533,3.0099 -0.201,11.4085 -0.4022,22.8168 -0.6032,34.2253 9.5512,-1.0031 19.1027,-2.0066 28.6538,-3.0098 0.048,-2.7622 0.095,-5.5238 0.1426,-8.286 -6.8272,0.7172 -13.6544,1.4341 -20.4817,2.1513 0.022,-1.5603 0.044,-3.1203 0.068,-4.6805 6.8305,-0.7175 13.661,-1.4352 20.4915,-2.1526 0.054,-2.7626 0.1084,-5.525 0.1625,-8.2878 -6.8268,0.7169 -13.6537,1.4338 -20.4803,2.151 0.022,-1.5602 0.046,-3.1202 0.07,-4.6801 6.8292,-0.7175 13.6586,-1.4349 20.4878,-2.1523 0.048,-2.7627 0.095,-5.5257 0.1427,-8.2884 z m -53.7765,5.649 c -2.7219,0.2858 -5.4439,0.5718 -8.1659,0.8576 -0.2009,11.4085 -0.4017,22.8173 -0.6027,34.2259 l 28.6513,-3.0099 c 0.048,-2.7622 0.096,-5.5243 0.1432,-8.2865 -6.8286,0.7174 -13.6572,1.4348 -20.4859,2.1522 0.1518,-8.6466 0.307,-17.293 0.46,-25.9393 z m 78.757,5e-4 c -0.1037,5.8837 -0.2133,11.7669 -0.3174,17.6505 -4.1066,0.4314 -8.2132,0.863 -12.3199,1.2945 0.1036,-5.884 0.2132,-11.7674 0.3173,-17.6511 0.1522,-0.016 0.3042,-0.032 0.4564,-0.048 z m -112.0456,3.4967 c -2.7225,0.2858 -5.4454,0.5718 -8.1678,0.8576 -0.2011,11.4086 -0.4018,22.8168 -0.6028,34.2253 9.5512,-1.0032 19.1022,-2.0066 28.6533,-3.0098 0.048,-2.7622 0.095,-5.5243 0.1428,-8.2865 l -20.4854,2.1523 c 0.1517,-8.6464 0.3069,-17.2928 0.4599,-25.9389 z m -12.8052,1.3449 -28.6518,3.0094 c -0.2009,11.4085 -0.4017,22.8168 -0.6026,34.2253 l 28.6512,-3.0093 c 0.048,-2.7621 0.097,-5.5249 0.1453,-8.287 -6.8281,0.7174 -13.6559,1.4346 -20.4839,2.1517 0.022,-1.56 0.046,-3.1202 0.07,-4.6802 6.8299,-0.7174 13.6596,-1.4349 20.4894,-2.1523 0.054,-2.7626 0.1084,-5.5256 0.1625,-8.2883 -6.826,0.7169 -13.6522,1.4341 -20.4783,2.1512 0.021,-1.5602 0.044,-3.1201 0.068,-4.6804 6.8292,-0.7174 13.6586,-1.4348 20.4878,-2.1523 0.048,-2.7626 0.095,-5.5251 0.1427,-8.2878 z m -33.2891,3.4968 c -9.0915,0.9549 -18.1828,1.9102 -27.2744,2.8652 v -0.024 l -30.6713,2.9164 29.1082,7.3436 c -0.068,3.7224 -0.1346,7.4445 -0.2019,11.1666 6.8273,-0.7169 13.6545,-1.4338 20.4818,-2.151 -0.021,1.5602 -0.046,3.1202 -0.069,4.6803 l -19.0933,2.0053 -14.8056,1.0789 13.3315,3.678 c -0.021,1.2252 -0.042,2.4508 -0.064,3.6763 9.5511,-1.0033 19.1021,-2.0067 28.6532,-3.0099 0.1282,-7.0854 0.2565,-14.1707 0.3847,-21.2561 -6.8274,0.7172 -13.655,1.4343 -20.4824,2.1518 0.022,-1.5602 0.044,-3.1205 0.069,-4.6805 l 20.4873,-2.1521 c 0.048,-2.7629 0.097,-5.5258 0.1448,-8.2884 z"
         style="font-style:normal;font-variant:normal;font-weight:normal;font-stretch:normal;font-size:10.5833px;line-height:1.25;font-family:'Nau Sea';-inkscape-font-specification:'Nau Sea';white-space:pre;fill:url(#linearGradient1302);fill-opacity:1;stroke:none;stroke-width:4.98265"
         id="path1279" />
      <g
         transform="translate(2512.89,1937.5671)"
         id="g1289">
        <path
           id="path1285"
           d="m 1728.6496,4383.3009 c -2.8626,0.727 -4.4621,3.4785 -4.2397,6.3582 0.4076,5.3716 -1.0264,8.5193 -7.0853,11.3192 -0.1511,0.069 -0.2965,0.1426 -0.4391,0.2281 h -0.011 c -0.5702,0.328 -1.0692,0.7498 -1.4826,1.2375 l -0.017,0.019 c -0.1002,0.1169 -0.1968,0.2394 -0.2851,0.3678 l -0.012,0.014 c -0.1824,0.2565 -0.3449,0.5303 -0.4847,0.8182 a 5.5969113,5.5969113 0 0 0 -0.1824,0.4249 l -0.017,0.045 c -0.054,0.1368 -0.1002,0.2737 -0.1396,0.4162 a 5.4058806,5.4058806 0 0 0 -0.1198,0.4876 l -0.011,0.034 c -0.029,0.1483 -0.052,0.2966 -0.069,0.4477 v 0.02 c -0.017,0.1482 -0.028,0.2965 -0.028,0.4476 v 0.069 c 0,0.1425 0,0.2908 0.012,0.4362 v 0.077 a 5.1321651,5.1321651 0 0 0 0.052,0.4419 l 0.012,0.062 a 5.9419068,5.9419068 0 0 0 0.2337,0.921 l 0.021,0.06 c 0.049,0.1426 0.1056,0.2794 0.1653,0.4134 l 0.031,0.074 c 0.062,0.1311 0.1283,0.2624 0.1995,0.3878 0.011,0.02 0.023,0.04 0.034,0.057 0.074,0.1311 0.1511,0.2566 0.2367,0.382 l 0.012,0.014 c 0.085,0.1255 0.1768,0.2453 0.2737,0.3621 l 0.019,0.028 c 0.097,0.1141 0.1967,0.2224 0.2994,0.3307 l 0.04,0.04 c 0.1024,0.1056 0.2082,0.2052 0.3194,0.3022 l 0.04,0.031 c 0.114,0.097 0.2338,0.1911 0.3535,0.2795 l 0.012,0.011 c 0.2566,0.1825 0.5275,0.3422 0.8097,0.4848 l 0.021,0.012 c 0.1368,0.069 0.2794,0.1312 0.4248,0.1854 0.011,0.011 0.014,0.011 0.023,0.011 0.5987,0.2338 1.2374,0.3649 1.8932,0.382 h 0.012 c 0.1654,0.011 0.3307,0 0.4962,-0.011 4.8014,-0.2025 8.1088,0.9609 10.1132,3.6125 a 12.759133,12.759133 0 0 1 1.34,2.452 l 0.029,0.06 c 0.9694,2.4862 3.1363,4.2369 5.6425,4.1913 0.4049,-0.011 0.8212,-0.054 1.2432,-0.1597 a 5.7024058,5.7024058 0 0 0 4.1285,-4.1256 l 0.037,-0.1769 c 0.029,-0.1197 0.057,-0.2394 0.074,-0.3649 0.029,-0.1768 0.045,-0.3535 0.057,-0.536 v -0.017 c 0.028,-0.5132 -0.021,-1.0378 -0.1369,-1.5595 l -0.028,-0.1483 c -0.7271,-2.8626 -3.4899,-4.5818 -6.3582,-4.2426 h -0.071 a 17.437956,17.437956 0 0 1 -3.8007,-0.1426 c -3.6951,-0.5218 -6.1586,-2.9367 -6.9598,-5.8934 -1.1576,-4.2711 1.0692,-8.354 6.1016,-10.4439 2.8883,-1.2061 4.8585,-3.8777 4.0886,-6.9171 a 5.7024058,5.7024058 0 0 0 -5.5227,-4.3053 5.7024058,5.7024058 0 0 0 -1.4028,0.1768"
           fill="url(#a)"
           style="fill:#00a3ef;fill-opacity:1;fill-rule:nonzero;stroke-width:0.28512" />
        <path
           id="path1287"
           d="m 1737.9074,4395.9345 c -0.4077,0.011 -0.8239,0.057 -1.2459,0.1626 a 5.7024058,5.7024058 0 0 0 -4.1286,4.1228 l -0.037,0.1768 c -0.028,0.1225 -0.057,0.2424 -0.074,0.3649 -0.029,0.1768 -0.045,0.3565 -0.057,0.5361 v 0.019 c -0.028,0.5133 0.02,1.0351 0.1397,1.5596 l 0.028,0.1455 c 0.7242,2.8654 3.487,4.5818 6.3581,4.2425 l 0.068,-0.011 c 1.4114,-0.1056 2.6574,-0.019 3.8036,0.1426 3.6922,0.5218 6.1586,2.9396 6.9569,5.8963 1.1576,4.2682 -1.0692,8.3512 -6.1016,10.444 -2.8882,1.2032 -4.8555,3.8776 -4.0857,6.9142 a 5.7024058,5.7024058 0 0 0 6.9283,4.1285 c 2.8598,-0.7242 4.4593,-3.4756 4.2398,-6.3582 -0.4105,-5.3716 1.0236,-8.5193 7.0824,-11.3164 0.1512,-0.069 0.2965,-0.1426 0.4391,-0.2281 h 0.011 c 0.5703,-0.3308 1.0692,-0.7528 1.4855,-1.2403 l 0.014,-0.017 c 0.1002,-0.1197 0.1968,-0.2424 0.2851,-0.3678 l 0.012,-0.017 c 0.1824,-0.2565 0.3449,-0.5303 0.4847,-0.8154 v -0.011 c 0.066,-0.1368 0.1254,-0.2766 0.1795,-0.4163 l 0.017,-0.048 c 0.054,-0.1341 0.1002,-0.2738 0.1397,-0.4134 l 0.014,-0.057 c 0.043,-0.1426 0.076,-0.2852 0.1056,-0.4335 l 0.011,-0.034 c 0.029,-0.1483 0.052,-0.2937 0.069,-0.4477 v -0.017 c 0.017,-0.1483 0.023,-0.2994 0.029,-0.4505 v -0.069 c 0,-0.1426 0,-0.2881 -0.011,-0.4335 l -0.011,-0.08 c -0.012,-0.1483 -0.028,-0.2966 -0.052,-0.4419 0,-0.02 -0.011,-0.043 -0.011,-0.062 -0.026,-0.1568 -0.057,-0.3108 -0.094,-0.4648 -0.04,-0.1568 -0.085,-0.3051 -0.1397,-0.4562 l -0.019,-0.057 c -0.049,-0.1425 -0.1056,-0.2823 -0.1654,-0.4163 l -0.031,-0.071 c -0.062,-0.1311 -0.1283,-0.2623 -0.1996,-0.3906 l -0.034,-0.057 c -0.074,-0.1283 -0.1512,-0.2566 -0.2367,-0.3793 a 5.0551827,5.0551827 0 0 0 -0.2851,-0.3792 l -0.019,-0.028 c -0.097,-0.114 -0.1968,-0.2224 -0.2995,-0.3278 l -0.04,-0.043 c -0.1024,-0.1024 -0.2081,-0.2053 -0.3193,-0.2994 l -0.04,-0.034 c -0.114,-0.097 -0.2309,-0.191 -0.3536,-0.2794 l -0.011,-0.011 c -0.2566,-0.1854 -0.5303,-0.3479 -0.8126,-0.4877 l -0.02,-0.011 c -0.1369,-0.068 -0.2795,-0.1312 -0.4249,-0.1882 l -0.023,-0.011 c -0.5988,-0.2309 -1.2374,-0.365 -1.8932,-0.382 h -0.012 c -0.1625,-0.011 -0.3278,0 -0.496,0.011 -4.8015,0.1996 -8.1089,-0.9609 -10.1133,-3.6125 a 12.787645,12.787645 0 0 1 -1.34,-2.4549 l -0.029,-0.057 c -0.9552,-2.4577 -3.0793,-4.1941 -5.5484,-4.1941 h -0.094"
           fill="url(#b)"
           style="fill:#f87b04;fill-opacity:1;fill-rule:nonzero;stroke-width:0.28512" />
      </g>
    </g>
  </g>
</svg>
