<svg xmlns="http://www.w3.org/2000/svg" xmlns:xlink="http://www.w3.org/1999/xlink" viewBox="0 0 178 174">
  <defs>
    <linearGradient id="e">
      <stop offset="0" stop-color="#fff"/>
      <stop offset="1" stop-color="#59f"/>
    </linearGradient>
    <linearGradient id="f">
      <stop offset="0" stop-color="#0264ae"/>
      <stop offset=".262" stop-color="#0266b1"/>
      <stop offset="1"/>
    </linearGradient>
    <linearGradient id="g">
      <stop offset="0" stop-color="#0ff"/>
      <stop offset=".076" stop-color="#0386e9"/>
      <stop offset="1"/>
    </linearGradient>
    <linearGradient id="c">
      <stop offset="0" stop-color="#00a3ef"/>
      <stop offset="1"/>
    </linearGradient>
    <linearGradient id="a">
      <stop offset="0" stop-color="#f87b04"/>
      <stop offset="1" stop-color="#1a1a1a"/>
    </linearGradient>
    <linearGradient id="b">
      <stop offset="0"/>
      <stop offset="1" stop-color="#00a3ef"/>
    </linearGradient>
    <linearGradient id="d">
      <stop offset="0"/>
      <stop offset="1" stop-color="#f87b04"/>
    </linearGradient>
    <linearGradient id="k" x1="357.188" x2="401.789" y1="2448.908" y2="2447.396" gradientTransform="matrix(.48094 0 0 .48094 -19.776 -1093.832)" gradientUnits="userSpaceOnUse" xlink:href="#a"/>
    <linearGradient id="l" x1="315.232" x2="176.515" y1="2495.021" y2="2509.762" gradientTransform="matrix(.48094 0 0 .48094 -19.776 -1093.832)" gradientUnits="userSpaceOnUse" xlink:href="#b"/>
    <linearGradient id="m" x1="104.321" x2="61.988" y1="2518.077" y2="2520.345" gradientTransform="matrix(.48094 0 0 .48094 -19.776 -1093.832)" gradientUnits="userSpaceOnUse" xlink:href="#c"/>
    <linearGradient id="n" x1="152.324" x2="285.75" y1="2471.964" y2="2457.223" gradientTransform="matrix(.48094 0 0 .48094 -19.776 -1093.832)" gradientUnits="userSpaceOnUse" xlink:href="#d"/>
    <linearGradient id="j" x1="1127.343" x2="1123.334" y1="3645.022" y2="3611.346" gradientTransform="translate(-515.812 -1883.404) scale(.53709)" gradientUnits="userSpaceOnUse" xlink:href="#e"/>
    <radialGradient id="i" cx="2054.349" cy="5631.817" r="94.002" fx="2054.349" fy="5631.817" gradientTransform="matrix(0 -.613 .37293 0 -2013.33 1318.445)" gradientUnits="userSpaceOnUse" xlink:href="#f"/>
    <radialGradient id="h" cx="1743.6" cy="3859.911" r="110.504" fx="1743.6" fy="3859.911" gradientTransform="matrix(.4357 0 0 .5403 -670.68 -1978.727)" gradientUnits="userSpaceOnUse" xlink:href="#g"/>
  </defs>
  <path fill="#fff" fill-rule="evenodd" d="M95.823.264c-2.722.89-5.447 1.832-7.98 3.183-4.236 2.411-8.282 5.306-11.409 9.083-4.746 5.513-7.883 12.463-8.564 19.727-.21 1.638-.375 3.269-.709 4.889-.134.453-.196 1.09-.632 1.4-.513.073-.935-.353-1.342-.607-3.083-2.359-6.498-4.236-9.923-6.04-.976-.511-1.96-1.005-2.95-1.491 1.128 2.788 2.508 5.467 3.6 8.27 1.069 2.727 1.613 5.682 1.362 8.612-.358 4.057-1.422 8.149-3.707 11.565-.848 1.242-1.8 2.378-2.979 3.35-1.316 1.114-2.893 1.844-4.35 2.749-4.89 2.87-9.78 5.744-14.667 8.62 3.885 22.172 7.77 44.345 11.657 66.517L89 173.93l45.77-33.84 11.657-66.518c-6.402-3.79-12.859-7.492-19.208-11.37-1.84-1.485-3.721-3.122-4.638-5.36-.593-1.795-1.014-3.661-1.872-5.36-1.922-4.448-4.907-8.33-6.938-12.722a15.21 15.21 0 01-1.16-7.987c.5-4.184 2.477-8.041 4.906-11.428l.605-.836c-3.139.104-5.862.567-8.803 1.618-2.264.782-4.526 2.678-6.068 4.485-1.07 1.179-1.883 2.596-3.117 3.621-.89.68-2.055.883-3.15.924-2.039.052-3.96-1.103-5.117-2.74-1.426-1.93-1.92-4.367-2.006-6.722-.162-3.411.63-6.803 1.865-9.948 1.307-3.346 3.048-6.497 4.703-9.68l-.606.196z" paint-order="markers fill stroke"/>
  <path fill="url(#h)" fill-rule="evenodd" stroke="#000" stroke-linecap="round" stroke-width="2.53" d="M141.874 75.677l-10.88 62.083L89 168.802 47.006 137.76l-10.88-62.083L89 44.635z" paint-order="markers fill stroke"/>
  <path fill="url(#i)" d="M75.252 101.592c-1.62 0-9.246-3.095-12.502-5.074-10.2-6.201-15.831-16.651-13.166-27.141.265-1.045.387-3.06 1.996-4.247 2.22-1.639 4.95-4.795 6.47-8.587 2.662-6.645 2.849-14.524.607-18.527l-1.232-2.2 1.692 1.024c3.527 2.136 5.61 4.469 5.478 9.668-.124 4.888 3.49 8.726 7.08 6.458 2.792-1.806.01-6.93-.563-10.302-2.143-12.624 1.827-22.717 9.542-30.513 3.041-3.073 10.732-7.55 10.732-7.55-3.157 4.646-5.355 12.168-4.887 17.414.813 8.083 4.121 13.557 9.784 13.557 3.673 0 6.85-1.054 8.544-6.375 1.943-6.099 7.753-6.947 7.753-6.947-3.662 4.94-3.883 10.806-2.14 17.185.877 3.208 7.31 9.558 9.22 17.757.895 3.84 6.461 7.786 6.461 7.786s16.123 12 15.092 14.31c-4.118 9.221-31.64 21.828-36.628 23.252-13.205-1.69-17.638-4.108-29.333-.948z"/>
  <path fill-rule="evenodd" d="M82.985 107.587l51.078 4.5-2.833 16.26-46.233-4.877z" paint-order="markers fill stroke"/>
  <path fill="#fff" d="M163.803 93.45c-.03 0-.062.004-.094.005l-2.258.029c-2.447.029-4.899.13-7.316.528-7.32.875-14.656 1.615-21.987 2.391l-.019 1.074h-6.207c.005-.144.005-.289.008-.433-31.14 3.289-62.28 6.554-93.422 9.817-2.924-2.618-5.088-5.986-8.158-8.45-1.113-.819-2.594-1.208-3.939-.786-1.464.373-2.801 1.07-4.216 1.568-2.326.939-4.695 1.804-6.903 3.002-.54.376-.983.9-1.242 1.506-1.99.65-4.062 1.15-5.894 2.192-.922.621-1.387 1.795-1.192 2.883.154 1.733.52 3.47 1.248 5.057.12.34.439.626.339 1.005-.067 1.45.473 2.837.93 4.187.556 1.378 1.383 2.668 2.512 3.647.538 1.655 1.564 3.1 2.634 4.45.582.707 1.32 1.293 2.163 1.647a11.354 11.354 0 003.314 3.536c1.273.743 3.029.66 4.147-.336.513.168 1.067.207 1.601.301 1.282.2 2.6.148 3.855-.189 1.622-.397 3.223-.878 4.846-1.273 2.329-.623 4.691-1.205 7.087-1.379 6.485-.691 12.018-1.273 18.504-1.953.012-.678-.033-4.526-.023-5.203.376.638 2.37 4.254 2.747 4.893 31.893-3.355 63.18-6.577 95.073-9.93l.043-2.677 11.796-8.115-11.603 1.019.005-3.782s7.63-4.383 10.633-6.623c.688-.513 1.426-.978 2.045-1.57.597-.785-.095-2.053-1.057-2.039zM62.452 119.206c.008 0 .013.017 0 .063-.036-.022-.015-.065 0-.063z" font-family="Nau Sea" font-size="10.583" font-weight="400" style="line-height:1.25;-inkscape-font-specification:'Nau Sea';white-space:pre"/>
  <path fill="#fff" d="M155.463 63.207c-1.87.028-3.55 1.247-4.475 2.824-1.92 2.834-3.281 6.016-5.298 8.787-.85.141-1.743.187-2.61.292-14.6 1.524-29.204 3.063-43.807 4.593l-.222 12.739-6.222.655.227-12.752c-3.377.36-6.755.718-10.132 1.076l-.223 12.738-6.22.655c.074-4.252.15-8.503.225-12.755-11.914 1.257-23.833 2.527-35.747 3.75-6.209.63-18.632 1.85-18.632 1.85L9.891 88.971s15.754 5.643 23.804 7.675l-.046 2.557c-2.402.142-8.826.269-11.143.953-2.003.47-.005 1-2.006 1.467 2.479.92 4.848 2.097 7.255 3.183 1.828.885 2.813 1.498 4.753 2.054-.025.962.986 1.702.969 2.666 36.83-3.869 73.665-7.747 110.49-11.619 2.29-.207 4.574-.537 6.861-.595 3.382.04 6.757.373 10.139.318 1.356-.113 2.628-.644 3.86-1.188 1.321.627 3.071.528 4.125-.562 1.169-1.064 1.89-2.52 2.47-3.962.045-.34.448-.391.638-.635 1.12-1.021 1.63-2.5 2.203-3.862.314-.87.551-1.774.638-2.698 1.105-1.183 1.421-2.836 1.753-4.364.247-1.417.243-2.884-.07-4.29.573-2.048.629-4.23.274-6.32-.14-.953-.767-1.823-1.676-2.176-1.173-.442-2.446-.497-3.678-.664-.847-.1-1.697-.18-2.547-.257-.821-1.15-2.27-1.576-3.607-1.747a233.682 233.682 0 00-9.887-1.699z"/>
  <path fill="url(#j)" fill-rule="evenodd" d="M85.044 37.01s2.198 3.478 2.178 7.12c-.027 4.758-2.464 7.57-8.872 14.997-6.394 7.409-8.058 11.274-7.97 18.122.065 5.12-2.262 5.542-4.322 6.075 8.698 6.957 10.06 10.09-.254 5.521v20.267h48.113V89.295c-2.514 1.703-5.044 3.004-7.297 3.647-1.706.487-1.68.357.775-4.027 2.825-3.027 8.65-10.77 6.18-10.73-1.59.025-3.525-.542-3.642-2.262-.448-6.613-.288-10.668-5.82-15.514l-2.059-1.472c1.315 3.043 2.578 5.796.252 8.894-2.279 3.035-4.806 3.096-6.592 1.579-3.907-3.322.451-7.996.776-12.204.47-6.097-1.039-8.769-2.81-11.784-2.285-3.887-8.636-8.412-8.636-8.412z" paint-order="markers fill stroke"/>
  <path fill="url(#k)" d="M134.948 79.026l12.392-1.302s2.135-2.641 4.268-6.821c1.09-2.138 2.42-3.844 2.563-4.017.297-.36.733-.573 1.213-.591.507-.02 10.037 1.65 10.617 1.859.442.16.518.231.584.55.09.433-.33 10.186-.454 10.584-.164.522-1.333.582-2.438.124-1.635-.677-2.532-2.224-2.538-4.373 0-.422-.032-.859-.068-.97-.05-.151-.418-.232-1.495-.327l-1.43-.127-.057.913a14.955 14.955 0 01-1.07 4.715c-.99 2.465-2.481 4.48-4.883 6.598-.739.652-1.414 1.215-1.5 1.252-.368.157-.036.242.445.114.676-.179 5.758-1.288 5.957-1.3.102-.006.102.789 0 2.472l-.15 2.482 1.616.632c4.387 1.714 5.222 2.048 5.242 2.096.012.028-.563.268-1.278.532-.883.326-1.512.493-1.96.52-.361.022-2.924-.117-5.695-.265l-4.945-.161-15.18 1.594zm7.398 11.356c1.47-.351 2.856-.663 3.08-.693.334-.045.616.073 1.54.64.622.384 1.165.682 1.207.664.041-.018-.143-.37-.41-.783-.288-.448-.575-1.037-.709-1.459-.266-.838-.52-2.378-.48-2.912.016-.208.006-.39-.027-.402-.031-.012-.32.583-.643 1.323l-.587 1.345-.758.396c-.416.218-1.565.772-2.552 1.232-1.731.806-2.508 1.217-2.39 1.265.03.012 1.259-.265 2.729-.616zm16.22-.86c.168-.898.964-2.508 1.312-2.657.202-.086.093-.121 5.09 1.635 2.035.715 3.721 1.351 3.748 1.414.287.68-1.509 3.936-2.154 3.908-.34-.015-7.91-3.624-7.99-3.808-.037-.088-.04-.31-.005-.492zm1.752-4.024c.092-1.202 1.192-4.01 1.576-4.023.109-.005 6.543 1.496 9.434 2.198.244.06.48.193.523.296.336.794-1.234 4.866-2.003 5.193-.079.034-1.37-.365-2.871-.886-1.5-.522-3.577-1.235-4.614-1.585-1.037-.351-1.928-.678-1.98-.726-.052-.049-.081-.259-.065-.467zm3.764-4.573c1.028-.184 1.35-.266 1.812-.46.92-.388 1.063-.692 1.227-2.628.08-.94.188-1.747.241-1.794.053-.047 1.205.076 2.56.268 1.356.195 2.713.38 3.016.413.307.033.619.15.705.265.201.268.181 2.007-.036 3.154-.17.896-.545 1.984-.836 2.423-.214.321-.064.34-4.185-.515-1.887-.392-3.69-.764-4.006-.827-.695-.14-.854-.235-.498-.299zm3.275-7.26c.037-.663.09-1.84.117-2.616.028-.776.085-1.424.127-1.44.042-.016.572.022 1.178.084.605.063 1.83.19 2.724.28.892.092 1.793.215 2.001.273l.38.107.097.747c.198 1.51-.12 4.18-.547 4.596-.082.08-.446.103-.866.055-1.604-.182-5.236-.742-5.257-.81-.012-.04.008-.615.045-1.277z"/>
  <path fill="url(#l)" d="M158.23 96.593l-9 1.085-14.073 1.478-.297 16.81 14.073-1.479.03-1.724 5.337-3.031-8.298 1-7.058.742.033-2.299 10.064-1.057.08-4.071-10.057 1.056.033-2.298 10.062-1.057zm-35.411 3.857l-4.012.421-.296 16.81 14.072-1.478.071-4.07-10.062 1.057.227-12.74zm-6.29.66l-14.071 1.479-.296 16.809 14.072-1.478.296-16.81zm-16.349 1.718l-19.103 2.007-.296 16.809 4.01-.421c.076-4.247.152-8.493.226-12.74l3.536-.371c-.074 4.246-.15 8.493-.226 12.74l4.01-.422.227-12.74 3.535-.37-.226 12.739 4.01-.422.297-16.809zm-21.38 2.246l-4.012.421-.225 12.74-6.05.635.225-12.74-4.01.422c-.1 5.603-.198 11.206-.296 16.81l14.071-1.479.296-16.809zm33.647.528l-.033 2.298-6.05.636c.01-.766.021-1.533.033-2.299l.224-.023 5.826-.612zm-49.998 1.19l-14.072 1.478-.296 16.809 4.01-.421c.037-2.123.072-4.246.107-6.369l2.185-.23c1.17 1.997 2.343 3.993 3.514 5.989l4.698-.494-3.515-5.988 3.18-.334.19-10.44zm-4.082 4.49c-.01.767-.022 1.533-.034 2.3l-6.05.635.035-2.299.224-.023 5.825-.612zm53.96.69c-.01.767-.02 1.533-.033 2.3l-6.05.635.033-2.299.224-.023 5.826-.612z" font-family="Nau Sea" font-size="10.583" font-weight="400" style="line-height:1.25;-inkscape-font-specification:'Nau Sea';white-space:pre"/>
  <path fill="url(#m)" d="M45.904 108.519l-14.417 1.514s-2.638-2.14-5.593-5.786c-1.51-1.864-3.166-3.257-3.341-3.396a1.636 1.636 0 00-1.31-.326c-.5.086-9.474 3.699-9.999 4.025-.398.247-.458.334-.456.659.005.442 2.438 9.896 2.643 10.26.27.476 1.424.29 2.41-.387 1.459-1.002 2.016-2.702 1.575-4.804-.087-.414-.148-.847-.135-.963.018-.159.36-.314 1.394-.632l1.371-.42.247.88a14.953 14.953 0 002.026 4.391c1.481 2.205 3.358 3.866 6.148 5.44.858.483 1.635.894 1.728.912.391.077.085.228-.412.204-.698-.034-5.9-.064-6.097-.034-.101.015.063.793.513 2.419l.662 2.396-1.45.954c-3.935 2.588-4.682 3.089-4.692 3.14-.006.03.607.144 1.361.254.931.136 1.582.169 2.025.102.358-.054 2.836-.722 5.516-1.443l4.803-1.185 13.156-1.382zm-6.902 12.858c-1.51-.038-2.931-.055-3.157-.037-.336.025-.587.199-1.372.946-.53.504-.999.909-1.043.9-.045-.01.062-.392.237-.851.19-.498.348-1.134.39-1.575.087-.875.015-2.434-.135-2.948-.059-.2-.084-.38-.056-.399.028-.018.434.504.904 1.16l.853 1.195.823.23c.453.126 1.692.43 2.753.674 1.86.428 2.706.67 2.6.74-.027.019-1.286.005-2.797-.035zm-16.045 2.53c-.35-.844-1.463-2.254-1.835-2.327-.215-.042-.116-.1-4.639 2.656-1.842 1.123-3.36 2.096-3.372 2.163-.14.724 2.293 3.537 2.919 3.375.328-.085 6.984-5.188 7.023-5.385.019-.094-.024-.311-.096-.483zm-2.549-3.573c-.34-1.156-2-3.675-2.378-3.608-.107.019-6.09 2.823-8.77 4.111-.227.109-.43.288-.452.398-.163.847 2.22 4.503 3.039 4.664.084.016 1.265-.642 2.625-1.464a721.03 721.03 0 014.183-2.51c.942-.558 1.745-1.062 1.786-1.12.04-.059.026-.27-.033-.47zm-4.632-3.69c-1.044.032-1.376.02-1.868-.075-.982-.188-1.184-.456-1.747-2.315-.273-.903-.547-1.67-.608-1.704-.062-.036-1.163.324-2.45.794-1.285.472-2.574.935-2.863 1.03-.294.096-.574.276-.635.406-.14.303.24 2 .691 3.078.352.84.946 1.827 1.322 2.195.276.27.133.32 3.986-1.373 1.764-.775 3.45-1.514 3.746-1.641.652-.281.787-.407.426-.395zm-4.712-6.423c-.174-.64-.47-1.78-.659-2.533-.188-.754-.378-1.376-.423-1.383-.045-.007-.555.14-1.134.328l-2.607.84c-.854.275-1.71.582-1.901.682l-.348.183.059.751c.12 1.52.986 4.065 1.49 4.382.097.061.458.008.858-.125 1.532-.512 4.968-1.815 4.974-1.886.005-.041-.135-.6-.31-1.239z"/>
  <path fill="url(#n)" d="M132.705 79.258l-14.072 1.478-.296 16.81 14.072-1.479.296-16.809zm-16.35 1.717l-14.072 1.479-.296 16.809 14.073-1.478.07-4.07-10.06 1.057.034-2.299 10.064-1.057.08-4.07-10.059 1.056c.01-.766.023-1.533.034-2.299l10.063-1.057.07-4.07zm-26.41 2.775l-4.011.421c-.1 5.603-.198 11.206-.296 16.81l14.071-1.479.07-4.07-10.06 1.058c.074-4.247.15-8.494.225-12.74zm38.68 0l-.157 8.669-6.05.636c.05-2.89.104-5.78.156-8.67l.224-.023zm-55.03 1.717l-4.011.422-.297 16.809 14.073-1.478.07-4.07-10.06 1.057c.074-4.247.15-8.493.225-12.74zm-6.29.661l-14.07 1.478c-.1 5.603-.198 11.206-.297 16.81l14.072-1.479.071-4.07-10.06 1.057c.01-.766.022-1.532.034-2.299l10.063-1.057.08-4.07-10.058 1.056c.01-.766.022-1.532.034-2.298l10.062-1.058.07-4.07zm-16.348 1.717L37.56 89.253v-.012l-15.064 1.432 14.296 3.607-.099 5.484 10.06-1.056c-.01.766-.023 1.532-.034 2.298l-9.378.985-7.271.53 6.547 1.807-.031 1.805 14.072-1.478.19-10.44-10.06 1.057c.01-.766.021-1.533.034-2.299l10.062-1.057.07-4.07z" font-family="Nau Sea" font-size="10.583" font-weight="400" style="line-height:1.25;-inkscape-font-specification:'Nau Sea';white-space:pre"/>
  <path fill="#00a3ef" d="M84.887 129.33c-1.406.356-2.191 1.708-2.082 3.122.2 2.638-.504 4.184-3.48 5.56-.074.033-.145.07-.216.111h-.005c-.28.161-.525.368-.728.608l-.008.01c-.05.057-.097.117-.14.18l-.006.007c-.09.126-.17.26-.238.402a2.749 2.749 0 00-.09.208l-.008.022c-.027.068-.05.135-.069.205a2.655 2.655 0 00-.059.24l-.005.016a2.735 2.735 0 00-.034.22v.01a1.922 1.922 0 00-.014.22v.033c0 .07 0 .143.006.215v.038a2.52 2.52 0 00.026.217l.006.03a2.918 2.918 0 00.114.452l.01.03c.025.07.053.137.082.203l.015.036a2.887 2.887 0 00.231.406l.006.007c.042.062.087.12.134.178l.01.014c.047.056.096.109.147.162l.02.02c.05.052.102.1.156.148l.02.015c.056.048.115.094.173.138l.006.005c.126.09.26.168.398.238l.01.006a2.07 2.07 0 00.22.097c.294.114.608.179.93.187h.006c.081.006.162 0 .244-.005 2.358-.1 3.982.472 4.967 1.774a6.266 6.266 0 01.658 1.204l.014.03c.476 1.22 1.54 2.08 2.771 2.058a2.81 2.81 0 00.61-.078 2.8 2.8 0 002.028-2.026l.019-.087c.014-.06.028-.118.036-.18.014-.086.022-.173.028-.263v-.008c.014-.252-.01-.51-.067-.766l-.014-.073c-.357-1.406-1.714-2.25-3.123-2.084h-.035a8.564 8.564 0 01-1.866-.07c-1.815-.256-3.025-1.442-3.418-2.894-.569-2.098.525-4.103 2.996-5.13 1.419-.592 2.386-1.904 2.008-3.397a2.8 2.8 0 00-2.712-2.114 2.8 2.8 0 00-.69.087"/>
  <path fill="#f87b04" d="M89.434 135.534c-.2.005-.405.028-.612.08a2.8 2.8 0 00-2.028 2.025l-.018.087c-.013.06-.028.119-.036.179a2.768 2.768 0 00-.028.263v.01c-.014.251.01.508.069.765l.013.072c.356 1.407 1.713 2.25 3.123 2.083l.033-.005a8.568 8.568 0 011.868.07c1.814.256 3.025 1.444 3.417 2.896.569 2.096-.525 4.101-2.996 5.13-1.419.59-2.385 1.904-2.007 3.395a2.8 2.8 0 003.403 2.028c1.404-.356 2.19-1.707 2.082-3.123-.202-2.638.503-4.184 3.478-5.558.075-.034.146-.07.216-.112h.005c.28-.162.526-.37.73-.609l.007-.008c.05-.06.097-.12.14-.181l.006-.008c.09-.126.17-.26.238-.4v-.006c.032-.067.061-.136.088-.205l.008-.023c.027-.066.05-.135.069-.203l.007-.028c.02-.07.037-.14.052-.213l.005-.017a2.64 2.64 0 00.034-.22v-.008c.008-.073.011-.147.014-.221v-.034c0-.07 0-.142-.005-.213l-.006-.04a2.643 2.643 0 00-.025-.216c0-.01-.006-.022-.006-.03a2.371 2.371 0 00-.115-.452l-.009-.03a2.494 2.494 0 00-.08-.204l-.016-.035a3.297 3.297 0 00-.098-.191l-.017-.028a2.574 2.574 0 00-.116-.187 2.483 2.483 0 00-.14-.186l-.01-.014a3.226 3.226 0 00-.147-.16l-.02-.022c-.05-.05-.101-.1-.156-.147l-.02-.017a2.74 2.74 0 00-.173-.137l-.006-.005a2.815 2.815 0 00-.399-.24l-.01-.005a2.62 2.62 0 00-.208-.093l-.012-.005a2.784 2.784 0 00-.93-.188h-.005c-.08-.005-.161 0-.244.006-2.358.098-3.982-.472-4.967-1.774a6.28 6.28 0 01-.658-1.206l-.014-.028c-.47-1.207-1.513-2.06-2.725-2.06h-.046"/>
</svg>
